HIERARCHY
ROOT Hips
{
  OFFSET -187.679 86.5976 -156.378
  CHANNELS 6 Xposition Yposition Zposition Zrotation Xrotation Yrotation
  JOINT LeftUpLeg
  {
    OFFSET 8.64259 1.95398 -2.38835
    CHANNELS 3 Zrotation Xrotation Yrotation
    JOINT LeftLeg
    {
      OFFSET 43.7702 0 0
      CHANNELS 3 Zrotation Xrotation Yrotation
      JOINT LeftFoot
      {
        OFFSET 40.6238 0 0
        CHANNELS 3 Zrotation Xrotation Yrotation
        JOINT LeftToeBase
        {
          OFFSET 12.7242 0 0
          CHANNELS 3 Zrotation Xrotation Yrotation
          End Site
          {
            OFFSET 0 0 0
          }
        }
      }
    }
  }
  JOINT RightUpLeg
  {
    OFFSET -8.2249 1.95398 -2.59336
    CHANNELS 3 Zrotation Xrotation Yrotation
    JOINT RightLeg
    {
      OFFSET 43.5653 0 0
      CHANNELS 3 Zrotation Xrotation Yrotation
      JOINT RightFoot
      {
        OFFSET 40.6238 0 0
        CHANNELS 3 Zrotation Xrotation Yrotation
        JOINT RightToeBase
        {
          OFFSET 12.7242 0 0
          CHANNELS 3 Zrotation Xrotation Yrotation
          End Site
          {
            OFFSET 0 0 0
          }
        }
      }
    }
  }
  JOINT Spine
  {
    OFFSET 0.165834 0.87714 6.61349
    CHANNELS 3 Zrotation Xrotation Yrotation
    JOINT Spine1
    {
      OFFSET 7.38963 1.71661e-005 0
      CHANNELS 3 Zrotation Xrotation Yrotation
      JOINT Spine2
      {
        OFFSET 11.9445 1.14441e-005 0
        CHANNELS 3 Zrotation Xrotation Yrotation
        JOINT Spine3
        {
          OFFSET 14.7254 4.19617e-005 0
          CHANNELS 3 Zrotation Xrotation Yrotation
          JOINT Spine4
          {
            OFFSET 10.9679 0 0
            CHANNELS 3 Zrotation Xrotation Yrotation
            JOINT RightShoulder
            {
              OFFSET 2.46616 -1.6653 3.69651
              CHANNELS 3 Zrotation Xrotation Yrotation
              JOINT RightArm
              {
                OFFSET 13.0012 0 0
                CHANNELS 3 Zrotation Xrotation Yrotation
                JOINT RightForeArm
                {
                  OFFSET 28.7848 1.52588e-005 0
                  CHANNELS 3 Zrotation Xrotation Yrotation
                  JOINT RightHand
                  {
                    OFFSET 26.5688 1.52588e-005 0
                    CHANNELS 3 Zrotation Xrotation Yrotation
                    End Site
                    {
                      OFFSET 0 0 0
                    }
                  }
                }
              }
            }
            JOINT LeftShoulder
            {
              OFFSET 2.38034 -1.29275 -3.7523
              CHANNELS 3 Zrotation Xrotation Yrotation
              JOINT LeftArm
              {
                OFFSET 16.3182 6.10352e-005 0
                CHANNELS 3 Zrotation Xrotation Yrotation
                JOINT LeftForeArm
                {
                  OFFSET 27.0901 0 0
                  CHANNELS 3 Zrotation Xrotation Yrotation
                  JOINT LeftHand
                  {
                    OFFSET 24.5451 1.52588e-005 0
                    CHANNELS 3 Zrotation Xrotation Yrotation
                    End Site
                    {
                      OFFSET 0 0 0
                    }
                  }
                }
              }
            }
            JOINT Neck
            {
              OFFSET 5.0226 -0.0266342 0
              CHANNELS 3 Zrotation Xrotation Yrotation
              JOINT Head
              {
                OFFSET 6.69363 2.86102e-005 0
                CHANNELS 3 Zrotation Xrotation Yrotation
                End Site
                {
                  OFFSET 0 0 0
                }
              }
            }
          }
        }
      }
    }
  }
}
MOTION
Frames:	10
Frame Time:	0.0416667
40.0698 103.057 -260.343 -135.956 -80.4317 -137.761 -175.688 -8.62738 88.6041 -7.52213 3.35719 9.09057 66.2442 3.78246 -0.662374 18.3141 -7.11087 6.61319 171.118 -1.02752 84.4412 -17.1536 13.7024 3.12735 65.224 -1.77185 2.23494 25.3779 -1.09123 1.77318 0.29798 7.52848 -89.6579 11.807 0.753503 0.602531 0.136188 0.779283 0.568778 -22.399 0.537582 0.801122 -2.38638 0.537586 0.80112 87.6571 -47.4846 -104.898 30.3905 -22.6886 -15.5568 -14.9976 -17.9015 -13.5015 -12.0432 -0.127253 -3.90057 -88.7927 -40.1686 78.6167 -30.9283 30.6002 -13.2791 6.63869 -9.0125 -9.2392 -1.50533 -0.0806177 -3.16223 5.42218 -0.68503 -3.58912 8.01633 0.125868 1.34691 
39.9596 103.063 -260.194 -139.712 -80.6011 -141.422 -175.333 -8.91809 89.0344 -7.63058 4.31301 8.94799 66.5783 3.87503 -0.829638 18.691 -6.66674 6.04006 171.08 -1.77951 84.533 -16.5662 14.0682 3.25559 64.8158 -1.65927 1.74084 26.1383 -0.942658 1.71769 0.197141 7.53163 -89.7225 11.8098 0.522614 0.497784 0.138848 0.544011 0.474292 -22.396 0.348845 0.631828 -2.38334 0.348849 0.631828 86.4042 -47.6546 -106.798 29.6219 -24.7752 -14.2135 -13.2183 -11.5691 -12.1877 -10.6736 0.0639955 -5.94349 -88.8589 -41.8618 78.9117 -29.7377 31.4097 -12.2022 6.37816 -9.61772 -10.3536 -1.82889 -0.0806485 -2.89457 4.36704 -0.485127 -2.1631 8.21336 -0.0340817 0.604691 
39.7846 103.074 -259.992 -142.531 -80.9779 -144.091 -174.903 -8.90485 89.5973 -7.75133 5.48062 8.73213 66.5714 3.9052 -0.52635 18.4818 -6.72221 5.94047 171.306 -2.3804 84.8743 -15.8923 14.9557 3.23715 64.6336 -1.63351 1.88929 26.0474 -0.912126 1.56747 0.179873 7.55348 -89.7331 11.7658 0.483197 0.480992 0.0948928 0.50389 0.459259 -22.4399 0.316296 0.603974 -2.42727 0.3163 0.60397 86.6112 -47.876 -106.408 29.1237 -24.1211 -14.3459 -14.1507 -13.906 -13.2472 -12.7342 -0.0420734 -4.75309 -88.6763 -41.6533 79.1613 -29.8212 31.6708 -12.4806 6.32605 -10.0282 -10.0676 -1.67652 -0.0822762 -3.02085 4.18355 -0.683989 -2.49251 8.70221 -0.155763 0.758472 
39.6299 103.064 -259.753 -143.307 -80.9571 -144.841 -174.765 -9.16831 89.7507 -7.70367 5.74531 8.70987 66.7178 3.95971 -0.423508 18.9919 -6.56275 6.12912 171.346 -2.65911 85.0086 -15.9957 15.0244 3.21894 65.141 -1.65956 1.51831 25.5646 -1.07688 1.83 0.20686 7.57921 -89.7657 11.7144 0.521492 0.412393 0.043465 0.539137 0.389028 -22.4916 0.373447 0.550059 -2.479 0.37344 0.550046 86.7517 -47.4113 -106.332 29.2994 -24.1288 -14.1708 -14.2033 -13.5702 -13.4874 -13.046 -0.0968113 -4.26157 -88.9554 -42.1652 78.824 -29.5223 31.8762 -12.4149 6.26672 -10.1572 -10.1752 -2.80741 -0.0873003 -3.57336 3.96047 -0.513777 -1.84963 8.95956 -0.15713 0.233495 
39.6256 103.06 -259.532 -143.133 -81.2491 -144.905 -175.223 -9.10938 89.2358 -7.59943 5.50028 9.11979 66.6311 3.86845 -0.48141 18.9506 -6.64479 6.26759 171.268 -2.41166 84.7815 -16.1728 15.2135 3.24332 65.0552 -1.48124 1.67136 26.092 -1.06039 2.0691 0.199552 7.5449 -89.7219 11.7827 0.527598 0.498545 0.111762 0.549022 0.474836 -22.4231 0.353359 0.634056 -2.41042 0.353365 0.63405 86.3907 -48.1661 -106.661 28.6297 -23.4146 -14.0135 -14.8881 -15.9926 -14.1752 -12.6663 -0.20984 -3.1704 -88.991 -42.0396 78.736 -29.9271 31.5787 -11.7833 6.5629 -9.95406 -10.0318 -2.84924 -0.0911825 -3.12371 3.60061 -0.531379 -2.14077 9.1227 -0.134399 0.19294 
39.4988 103.04 -259.344 -142.133 -81.5314 -143.967 -175.366 -8.98628 89.1347 -7.4724 5.06456 9.25659 66.8508 3.93362 -0.576007 18.8413 -6.53553 5.9087 171.479 -2.28347 84.9339 -15.9908 14.9944 3.07254 65.0596 -1.35461 1.23919 26.1016 -1.23167 2.62118 0.212673 7.54494 -89.7175 11.7825 0.555778 0.5044 0.111554 0.57744 0.47944 -22.4233 0.378488 0.648109 -2.41068 0.378494 0.648105 86.4874 -48.1743 -106.509 28.5133 -23.3849 -14.0427 -15.3012 -16.447 -15.0818 -12.2426 -0.158983 -3.60468 -88.8405 -41.9177 78.9535 -29.959 31.8198 -11.8297 6.32506 -9.90632 -10.3068 -3.25375 -0.0916072 -3.90727 4.01913 -0.341976 -2.18459 9.3501 0.0852694 0.372263 
39.3579 103.036 -259.146 -141.59 -81.6424 -143.504 -175.399 -8.98943 89.107 -7.46355 5.22676 9.30501 66.8468 3.92207 -0.537563 19.1575 -6.57531 6.33492 171.416 -2.19118 84.8988 -16.2538 15.4095 3.18327 65.3154 -1.35902 1.68677 25.7695 -1.27379 2.56364 0.219655 7.54638 -89.7298 11.7797 0.563862 0.478935 0.108834 0.584397 0.45365 -22.4262 0.393852 0.626251 -2.41351 0.393858 0.626253 86.7205 -47.926 -106.224 28.6899 -22.8474 -14.7927 -15.1382 -16.8382 -14.2633 -12.6954 -0.178192 -3.48387 -89.0208 -42.662 78.8338 -29.0246 31.3972 -12.1221 6.60949 -9.15437 -9.90323 -2.4536 -0.0906385 -1.80047 4.18479 -0.304195 -1.63516 9.83376 -0.0190374 -0.0972345 
39.1216 103.031 -259.003 -139.604 -81.5533 -141.293 -175.187 -9.04815 89.4957 -7.34292 5.09516 9.28607 66.7935 3.86227 -0.585877 19.452 -6.36639 6.18395 171.668 -2.27212 85.3272 -16.0879 15.3117 3.11219 65.278 -1.39072 1.48475 26.0302 -1.4077 3.13987 0.211127 7.55192 -89.7812 11.7691 0.522741 0.381067 0.0982557 0.539006 0.357688 -22.437 0.384045 0.520554 -2.42433 0.384047 0.520551 86.9638 -47.602 -105.944 28.6432 -23.2592 -14.6669 -15.3533 -16.1322 -15.2729 -13.1399 -0.213915 -3.19881 -88.9569 -43.1918 79.0588 -28.9723 30.7511 -12.0277 6.73489 -9.08384 -10.2416 -2.58704 -0.0888562 -1.91054 5.00998 -0.192607 -0.866284 9.35269 -0.0662023 -0.337217 
38.8856 102.988 -258.895 -135.565 -81.688 -137.298 -175.148 -8.64167 89.6216 -7.29963 4.79952 9.15783 66.907 3.90647 -0.651791 19.2201 -6.50727 6.25045 171.696 -1.61888 85.4413 -16.5512 15.0504 3.21598 65.641 -1.46454 1.45211 25.5292 -1.32705 2.59494 0.191742 7.54711 -89.7898 11.7788 0.480175 0.368224 0.107928 0.495916 0.346719 -22.4272 0.347308 0.495509 -2.41459 0.347307 0.495502 86.8056 -47.6896 -106.164 28.1799 -23.3224 -15.436 -15.2769 -16.4647 -14.8663 -13.2117 -0.146155 -3.82328 -88.7254 -43.4697 79.4963 -28.0196 31.8297 -12.765 6.14723 -10.8325 -10.2863 -2.78335 -0.0872697 -4.0413 5.92158 -0.13184 -0.801584 9.32493 -0.011007 -0.331277 
38.497 102.968 -258.682 -133.408 -81.5349 -134.882 -174.484 -8.67818 90.4337 -7.34473 5.10204 8.64378 66.9668 3.95273 -0.672676 19.5669 -6.3906 6.36329 172.04 -1.76489 86.0058 -16.4211 14.8861 3.08575 65.6374 -1.58105 1.53487 26.0823 -0.908806 1.58055 0.212363 7.53194 -89.8269 11.8093 0.503741 0.29155 0.138406 0.516083 0.269094 -22.397 0.392829 0.429461 -2.38437 0.392832 0.429465 86.8209 -47.8002 -106.107 27.9439 -23.8675 -15.1218 -15.1217 -15.7697 -14.865 -12.8388 -0.178198 -3.4881 -89.1351 -43.6951 78.8881 -27.9249 31.7477 -12.2305 6.12175 -11.0404 -11.0424 -2.71552 -0.0859419 -4.16739 5.87654 -0.161029 -0.914375 9.33729 0.0117995 -0.0470097 
